PathFileType	4	(X/Y/Z)	/Users/itak/Documents/Research/Walk-IL/dataset/trc/00081_00006.trc
DataRate	CameraRate	NumFrames	NumMarkers	Units	OrigDataRate	OrigDataStartFrame	OrigNumFrames
100.000000	100.000000	4	53	mm	100.000000	313	501
Frame#	Time	RPSI			LPSI			L3			STRN			T10			C7			CLAV			RBAK			LBAK			LSHO			LUPA			LAEL			LAOL			LWTS			LWPS			LFRA			LIFD			LHPS			LHTS			RSHO			RUPA			RAEL			RAOL			RWTS			RWPS			RFRA			RIFD			RHTS			RHPS			RBHD			LFHD			RFHD			LBHD			LHIP			RHIP			RASI			LASI			LKNE			LTHI			LANK			LTIP			LTOE			LMT1			LMT5			LHEE			RKNE			RTHI			RANK			RTIP			RTOE			RMT1			RMT5			RHEE			
		X1	Y1	Z1	X2	Y2	Z2	X3	Y3	Z3	X4	Y4	Z4	X5	Y5	Z5	X6	Y6	Z6	X7	Y7	Z7	X8	Y8	Z8	X9	Y9	Z9	X10	Y10	Z10	X11	Y11	Z11	X12	Y12	Z12	X13	Y13	Z13	X14	Y14	Z14	X15	Y15	Z15	X16	Y16	Z16	X17	Y17	Z17	X18	Y18	Z18	X19	Y19	Z19	X20	Y20	Z20	X21	Y21	Z21	X22	Y22	Z22	X23	Y23	Z23	X24	Y24	Z24	X25	Y25	Z25	X26	Y26	Z26	X27	Y27	Z27	X28	Y28	Z28	X29	Y29	Z29	X30	Y30	Z30	X31	Y31	Z31	X32	Y32	Z32	X33	Y33	Z33	X34	Y34	Z34	X35	Y35	Z35	X36	Y36	Z36	X37	Y37	Z37	X38	Y38	Z38	X39	Y39	Z39	X40	Y40	Z40	X41	Y41	Z41	X42	Y42	Z42	X43	Y43	Z43	X44	Y44	Z44	X45	Y45	Z45	X46	Y46	Z46	X47	Y47	Z47	X48	Y48	Z48	X49	Y49	Z49	X50	Y50	Z50	X51	Y51	Z51	X52	Y52	Z52	X53	Y53	Z53	

314	3.13	-114.3690719604492	1012.736267089844	322.7248229980469	-216.3885040283203	993.388671875	179.8311767578125	-163.8370056152344	1064.589477539062	250.68115234375	43.30469512939453	1259.507690429688	102.3375015258789	-171.3638305664062	1197.37548828125	262.6836853027344	-120.3785171508789	1463.472534179688	226.231201171875	18.63385581970215	1374.515991210938	116.845100402832	-125.1231994628906	1326.02392578125	324.3085327148438	-201.6233673095703	1427.470092773438	163.3126068115234	-168.6063690185547	1430.02685546875	42.69841766357422	-244.2480316162109	1309.496826171875	2.104100465774536	-275.3236694335938	1097.905639648438	-13.09223937988281	-258.590087890625	1085.729370117188	91.74796295166016	-188.7219696044922	848.7935791015625	-24.19435882568359	-273.7965393066406	844.5074462890625	-21.59745597839355	-277.3861083984375	986.9191284179688	-28.64501953125	-186.0122222900391	661.5657348632812	-8.645129203796387	-256.4867248535156	761.714111328125	-37.02685546875	-185.0158386230469	763.5068969726562	-38.63211822509766	35.93759536743164	1428.253173828125	324.2494506835938	67.72373962402344	1363.453857421875	383.5005493164062	88.69841766357422	1101.865600585938	443.8149108886719	41.32353973388672	1072.64599609375	360.4776611328125	194.33056640625	865.3549194335938	306.7157287597656	194.0659942626953	848.029052734375	391.9389343261719	114.2055740356445	1022.74267578125	440.4925231933594	220.959716796875	680.5587158203125	287.2684326171875	227.4969329833984	771.4647827148438	284.4269104003906	236.2690887451172	767.6280517578125	361.1421813964844	-110.4284591674805	1648.9013671875	173.7971496582031	92.84758758544922	1662.39501953125	105.5578994750977	-7.486490249633789	1666.636962890625	29.54718208312988	3.443326473236084	1636.002197265625	249.1819305419922	-173.0621795654297	935.9182739257812	44.04071044921875	-16.11165237426758	945.5546875	352.1193237304688	76.52519989013672	956.3325805664062	267.831787109375	-50.91105270385742	949.8484497070312	34.75894546508789	47.10793685913086	513.5296630859375	-10.1348123550415	-50.31991195678711	627.802490234375	-9.328473091125488	108.381965637207	48.55812072753906	-16.63184547424316	65.84986877441406	269.2742309570312	-20.54953002929688	253.5164794921875	122.5694732666016	-134.1966552734375	256.3408508300781	101.2460556030273	-67.430908203125	157.4127349853516	73.36917114257812	-109.7391128540039	122.1031723022461	38.14428329467773	73.26058959960938	-25.90874290466309	502.22314453125	325.4190673828125	33.68864059448242	768.3901977539062	326.1899108886719	-195.9572601318359	44.06096649169922	397.1182250976562	-65.69542694091797	384.2918701171875	349.8767395019531	-15.18257808685303	35.70271682739258	272.7593688964844	-87.74120330810547	45.39353179931641	262.3399658203125	-76.85299682617188	41.40659332275391	361.1689453125	-261.8025207519531	52.44718170166016	364.6766052246094	
315	3.14	-105.7596893310547	1011.256774902344	318.2007446289062	-208.8229522705078	991.6785888671875	176.0467987060547	-155.7628784179688	1062.861206054688	246.4528961181641	49.45436096191406	1257.981323242188	96.07656097412109	-163.4086761474609	1195.546752929688	258.5678100585938	-113.550537109375	1461.747314453125	221.4303894042969	24.64864349365234	1372.943603515625	110.6884155273438	-117.0086441040039	1324.369995117188	319.7101135253906	-195.3009033203125	1425.40478515625	159.3278656005859	-163.524169921875	1427.87548828125	38.35895156860352	-239.2917785644531	1307.0166015625	-1.151725769042969	-270.1378784179688	1095.466918945312	-15.5538501739502	-252.2178192138672	1083.469116210938	89.25352478027344	-184.2061004638672	846.1053466796875	-26.85482597351074	-269.3179626464844	842.0465087890625	-23.40467643737793	-272.6010131835938	984.4026489257812	-30.69304084777832	-181.9911956787109	658.8663330078125	-10.80341529846191	-252.4401092529297	759.14697265625	-38.77990341186523	-180.9886322021484	760.6795654296875	-41.05769729614258	43.88079452514648	1426.869506835938	317.8739929199219	76.37370300292969	1361.979614257812	376.69384765625	99.07596588134766	1100.56982421875	436.7077941894531	50.85952377319336	1071.160278320312	353.907958984375	204.1861572265625	864.5283203125	298.3049011230469	204.9293975830078	847.1614379882812	383.5462646484375	125.0240478515625	1021.528930664062	433.050048828125	231.3771057128906	679.8844604492188	278.5025329589844	237.4698791503906	770.8045043945312	275.6200866699219	247.1210174560547	766.9779052734375	352.234130859375	-104.3232650756836	1647.186279296875	168.9701080322266	98.46660614013672	1661.22607421875	99.50706481933594	-2.313490629196167	1665.567993164062	24.12139701843262	9.968745231628418	1634.215209960938	243.5921325683594	-166.4353637695312	933.9849853515625	40.04238891601562	-7.411466121673584	944.364501953125	347.2213745117188	84.77812957763672	954.7713623046875	261.8956604003906	-44.4122200012207	948.0045776367188	29.7031307220459	52.61224746704102	511.5841979980469	-13.28185367584229	-45.09955215454102	625.084228515625	-12.28635597229004	120.3132858276367	48.19135284423828	-23.52414512634277	74.26769256591797	268.3396301269531	-25.4136848449707	262.9308776855469	124.5782241821289	-142.69970703125	266.8906555175781	102.925407409668	-76.10067749023438	167.7023620605469	74.14561462402344	-117.1408157348633	135.327880859375	37.45056915283203	66.15857696533203	-19.9962215423584	501.0919799804688	321.5266418457031	41.38787841796875	766.8157348632812	321.1075134277344	-195.6191711425781	45.13994598388672	397.0351867675781	-61.16604995727539	383.6632690429688	347.1900634765625	-15.03822803497314	35.62120819091797	272.7033996582031	-87.5433349609375	45.35985565185547	262.2806396484375	-76.64169311523438	41.45322418212891	361.0413208007812	-261.4716491699219	54.21364212036133	364.7041320800781	
316	3.15	-97.15109252929688	1009.863525390625	313.4808044433594	-201.2313537597656	990.064208984375	172.0862274169922	-147.6713409423828	1061.19921875	242.0532379150391	55.60813522338867	1256.508666992188	89.67816162109375	-155.4036254882812	1193.758178710938	254.2894897460938	-106.6989212036133	1460.077514648438	216.4874420166016	30.66674423217773	1371.419067382812	104.4020462036133	-108.9260787963867	1322.767822265625	314.9491882324219	-188.9939880371094	1423.382080078125	155.2035980224609	-158.4083557128906	1425.782104492188	33.8715934753418	-234.2718505859375	1304.58984375	-4.596631526947021	-264.8048095703125	1093.061157226562	-18.26837158203125	-245.7911987304688	1081.2666015625	86.52586364746094	-179.5226287841797	843.4703369140625	-29.65542602539062	-264.6571350097656	839.6406860351562	-25.43696975708008	-267.6437683105469	981.9351806640625	-32.96540451049805	-177.7758331298828	656.2296752929688	-13.08542060852051	-248.1696624755859	756.6298828125	-40.73457717895508	-176.7541198730469	757.9125366210938	-43.62197494506836	51.77204132080078	1425.527709960938	311.3597412109375	84.9461669921875	1360.518310546875	369.732177734375	109.232795715332	1099.317138671875	429.4119567871094	60.22001647949219	1069.721435546875	347.1227416992188	213.8340301513672	863.69287109375	289.8362426757812	215.4920349121094	846.2938842773438	375.0705871582031	135.5908813476562	1020.338012695312	425.4524536132812	241.5313110351562	679.1963500976562	269.6846923828125	247.2088012695312	770.122802734375	266.7743225097656	257.7010498046875	766.3169555664062	343.2925720214844	-98.26576232910156	1645.5224609375	164.0505218505859	104.0498428344727	1660.130737304688	93.38644409179688	2.825620651245117	1664.5751953125	18.62714958190918	16.45934677124023	1632.477661132812	237.9167022705078	-159.7763366699219	932.1436157226562	35.88141632080078	1.255157113075256	943.1801147460938	342.1315002441406	93.03529357910156	953.25048828125	255.859619140625	-37.8943977355957	946.2049560546875	24.57336807250977	58.53921890258789	509.8586730957031	-16.90334129333496	-39.25819396972656	622.7749633789062	-15.66275310516357	130.3300323486328	47.53721618652344	-29.03395462036133	81.98233795166016	267.16943359375	-29.81613731384277	270.8888244628906	125.0504837036133	-149.8687591552734	275.8105773925781	103.3249435424805	-83.35928344726562	176.3079833984375	73.95230102539062	-123.1714477539062	146.4965667724609	36.76509857177734	60.48714828491211	-13.96448421478271	499.9986877441406	317.4800720214844	49.1055793762207	765.2708129882812	315.8715515136719	-195.2494506835938	46.42483520507812	397.007080078125	-56.50294494628906	383.1080017089844	344.4016723632812	-14.91359519958496	35.55435562133789	272.6527099609375	-87.32887268066406	45.35171508789062	262.2479553222656	-76.42040252685547	41.50864791870117	360.925048828125	-261.0651245117188	56.2650032043457	364.8271484375	
317	3.16	-88.52860260009766	1008.574462890625	308.5601806640625	-193.6007843017578	988.5635375976562	167.9526977539062	-139.5569763183594	1059.621704101562	237.4823303222656	61.76702880859375	1255.1123046875	83.13802337646484	-147.3545227050781	1192.030883789062	249.8466644287109	-99.82344818115234	1458.481689453125	211.4017944335938	36.68917083740234	1369.965698242188	97.98067474365234	-100.8662796020508	1321.240600585938	310.0267944335938	-182.6831512451172	1421.427368164062	150.9413146972656	-153.2618560791016	1423.77197265625	29.24145698547363	-229.1889190673828	1302.245727539062	-8.22344970703125	-259.3365783691406	1090.710815429688	-21.2218017578125	-239.3013610839844	1079.1484375	83.57054901123047	-174.6695861816406	840.9308471679688	-32.63174057006836	-259.817138671875	837.320068359375	-27.69928359985352	-262.5211791992188	979.5441284179688	-35.46274566650391	-173.3652191162109	653.6832275390625	-15.51245784759521	-243.6775207519531	754.1921997070312	-42.89977645874023	-172.3038940429688	755.240966796875	-46.34157943725586	59.62083435058594	1424.24755859375	304.7069396972656	93.4542236328125	1359.100341796875	362.6201782226562	119.1572723388672	1098.133911132812	421.9403076171875	69.40205383300781	1068.359497070312	340.1334533691406	223.2590637207031	862.8756713867188	281.3191528320312	225.7431945800781	845.4510498046875	366.5242614746094	145.8884429931641	1019.195007324219	417.7183227539062	251.4007415771484	678.5147705078125	260.8310546875	256.7032165527344	769.444091796875	257.8973999023438	267.9870910644531	765.6615600585938	334.3256530761719	-92.26004791259766	1643.924072265625	159.033203125	109.6001052856445	1659.135498046875	87.19864654541016	7.93327808380127	1663.682495117188	13.06573295593262	22.91338920593262	1630.807250976562	232.1543884277344	-153.0881042480469	930.4096069335938	31.56230735778809	9.932719230651855	942.0079956054688	336.8009338378906	101.3011322021484	951.788330078125	249.7031097412109	-31.35086250305176	944.489501953125	19.34156608581543	64.88504028320312	508.3469848632812	-20.98651123046875	-32.80440902709961	620.8848266601562	-19.48809432983398	138.4840087890625	46.58547973632812	-33.24774932861328	89.06375885009766	265.7510986328125	-33.79890823364258	277.5962524414062	123.9552612304688	-155.6796722412109	283.2484130859375	102.369514465332	-89.18006896972656	183.3848876953125	72.78767395019531	-127.8846969604492	155.6103973388672	36.02214431762695	56.17345428466797	-7.82050085067749	498.9653015136719	313.2873840332031	56.85303497314453	763.78759765625	310.4593505859375	-194.8347015380859	47.93075180053711	397.0481567382812	-51.70895767211914	382.6470336914062	341.5138854980469	-14.81763553619385	35.50088119506836	272.6016845703125	-87.09994506835938	45.37786865234375	262.2440185546875	-76.18281555175781	41.58137512207031	360.8279724121094	-260.5580444335938	58.61148452758789	365.0525207519531	
